<?xml version="1.0" encoding="UTF-8"?>
<svg version="1.1" viewBox="0 0 48 48" xmlns="http://www.w3.org/2000/svg" xmlns:cc="http://creativecommons.org/ns#" xmlns:dc="http://purl.org/dc/elements/1.1/" xmlns:rdf="http://www.w3.org/1999/02/22-rdf-syntax-ns#">
 <metadata>
  <rdf:RDF>
   <cc:Work rdf:about="">
    <dc:format>image/svg+xml</dc:format>
    <dc:type rdf:resource="http://purl.org/dc/dcmitype/StillImage"/>
    <dc:title/>
   </cc:Work>
  </rdf:RDF>
 </metadata>
 <defs>
  <style>.a{fill:none;stroke:#fff;stroke-linecap:round;stroke-linejoin:round;}</style>
 </defs>
 <circle cx="24" cy="24" r="21.749" fill="none" stroke="#fff" stroke-linecap="round" stroke-linejoin="round"/>
 <path d="m22.614 7.3154a16.743 16.743 0 0 0-15.357 16.686 16.743 16.743 0 0 0 15.357 16.684v-5.6621a11.25 11.25 0 0 1-0.16016-0.02148 11.25 11.25 0 0 1-0.27734-0.04687 11.25 11.25 0 0 1-0.27734-0.05273 11.25 11.25 0 0 1-0.27539-0.05859 11.25 11.25 0 0 1-0.27344-0.06641 11.25 11.25 0 0 1-0.27344-0.07422 11.25 11.25 0 0 1-0.26953-0.08008 11.25 11.25 0 0 1-0.26953-0.08789 11.25 11.25 0 0 1-0.26562-0.0918 11.25 11.25 0 0 1-0.26367-0.10156 11.25 11.25 0 0 1-0.25977-0.10742 11.25 11.25 0 0 1-0.25977-0.11328 11.25 11.25 0 0 1-0.25391-0.11914 11.25 11.25 0 0 1-0.25195-0.125 11.25 11.25 0 0 1-0.25-0.13281 11.25 11.25 0 0 1-0.24609-0.13867 11.25 11.25 0 0 1-0.24219-0.14453 11.25 11.25 0 0 1-0.23828-0.15234 11.25 11.25 0 0 1-0.23437-0.15625 11.25 11.25 0 0 1-0.23047-0.16212 11.25 11.25 0 0 1-0.22656-0.16797 11.25 11.25 0 0 1-0.2207-0.17383 11.25 11.25 0 0 1-0.21875-0.17969 11.25 11.25 0 0 1-0.21289-0.18555 11.25 11.25 0 0 1-0.20703-0.18945 11.25 11.25 0 0 1-0.20508-0.19531 11.25 11.25 0 0 1-0.19726-0.20117 11.25 11.25 0 0 1-0.19336-0.20508 11.25 11.25 0 0 1-0.18945-0.20898 11.25 11.25 0 0 1-0.18164-0.21484 11.25 11.25 0 0 1-0.17773-0.21875 11.25 11.25 0 0 1-0.17188-0.22461 11.25 11.25 0 0 1-0.16797-0.22656 11.25 11.25 0 0 1-0.16016-0.23242 11.25 11.25 0 0 1-0.1543-0.23633 11.25 11.25 0 0 1-0.14844-0.24023 11.25 11.25 0 0 1-0.14258-0.24219 11.25 11.25 0 0 1-0.13672-0.24609 11.25 11.25 0 0 1-0.13086-0.25195 11.25 11.25 0 0 1-0.12305-0.25195 11.25 11.25 0 0 1-0.11719-0.25586 11.25 11.25 0 0 1-0.11133-0.25977 11.25 11.25 0 0 1-0.10547-0.26172 11.25 11.25 0 0 1-0.09766-0.26562 11.25 11.25 0 0 1-0.0918-0.26562 11.25 11.25 0 0 1-0.08398-0.26953 11.25 11.25 0 0 1-0.07813-0.27148 11.25 11.25 0 0 1-0.07031-0.27344 11.25 11.25 0 0 1-0.06445-0.27344 11.25 11.25 0 0 1-0.05664-0.27734 11.25 11.25 0 0 1-0.05078-0.27734 11.25 11.25 0 0 1-0.04297-0.27734 11.25 11.25 0 0 1-0.03711-0.28125 11.25 11.25 0 0 1-0.0293-0.2793 11.25 11.25 0 0 1-0.02148-0.28125 11.25 11.25 0 0 1-0.01563-0.28125 11.25 11.25 0 0 1-0.0078-0.2832 11.25 11.25 0 0 1-2e-3 -0.18359 11.25 11.25 0 0 1 0.0039-0.2832 11.25 11.25 0 0 1 0.0098-0.28125 11.25 11.25 0 0 1 0.01758-0.28125 11.25 11.25 0 0 1 0.02539-0.28125 11.25 11.25 0 0 1 0.03125-0.2793 11.25 11.25 0 0 1 0.03906-0.2793 11.25 11.25 0 0 1 0.04492-0.2793 11.25 11.25 0 0 1 0.05274-0.27734 11.25 11.25 0 0 1 0.06055-0.27539 11.25 11.25 0 0 1 0.06641-0.27344 11.25 11.25 0 0 1 0.07226-0.27344 11.25 11.25 0 0 1 0.08008-0.26953 11.25 11.25 0 0 1 0.08789-0.26758 11.25 11.25 0 0 1 0.09375-0.26758 11.25 11.25 0 0 1 0.09961-0.26367 11.25 11.25 0 0 1 0.10742-0.25976 11.25 11.25 0 0 1 0.11328-0.25781 11.25 11.25 0 0 1 0.11914-0.25586 11.25 11.25 0 0 1 0.12695-0.25195 11.25 11.25 0 0 1 0.13281-0.25 11.25 11.25 0 0 1 0.13867-0.24414 11.25 11.25 0 0 1 0.14453-0.24219 11.25 11.25 0 0 1 0.15039-0.23828 11.25 11.25 0 0 1 0.15625-0.23437 11.25 11.25 0 0 1 0.16406-0.23242 11.25 11.25 0 0 1 0.16797-0.22461 11.25 11.25 0 0 1 0.17383-0.22266 11.25 11.25 0 0 1 0.17969-0.2168 11.25 11.25 0 0 1 0.18359-0.21484 11.25 11.25 0 0 1 0.19141-0.20703 11.25 11.25 0 0 1 0.19531-0.20312 11.25 11.25 0 0 1 0.19922-0.19922 11.25 11.25 0 0 1 0.20508-0.19336 11.25 11.25 0 0 1 0.21094-0.18945 11.25 11.25 0 0 1 0.21484-0.18164 11.25 11.25 0 0 1 0.21875-0.17773 11.25 11.25 0 0 1 0.22266-0.17188 11.25 11.25 0 0 1 0.22852-0.16602 11.25 11.25 0 0 1 0.23242-0.16211 11.25 11.25 0 0 1 0.23438-0.1543 11.25 11.25 0 0 1 0.24023-0.14844 11.25 11.25 0 0 1 0.24414-0.14258 11.25 11.25 0 0 1 0.24609-0.13672 11.25 11.25 0 0 1 0.25-0.13086 11.25 11.25 0 0 1 0.25391-0.12305 11.25 11.25 0 0 1 0.25586-0.11719 11.25 11.25 0 0 1 0.25977-0.11133 11.25 11.25 0 0 1 0.26172-0.10547 11.25 11.25 0 0 1 0.26367-0.09766 11.25 11.25 0 0 1 0.26758-0.0918 11.25 11.25 0 0 1 0.26953-0.08398 11.25 11.25 0 0 1 0.26953-0.07813 11.25 11.25 0 0 1 0.27344-0.07031 11.25 11.25 0 0 1 0.27539-0.06445 11.25 11.25 0 0 1 0.27539-0.05664 11.25 11.25 0 0 1 0.27734-0.05078 11.25 11.25 0 0 1 0.2793-0.04297 11.25 11.25 0 0 1 0.0625-0.0078zm2.9961 0.019531v5.3887a11.25 11.25 0 0 1 0.2168 0.03125 11.25 11.25 0 0 1 0.27734 0.04492 11.25 11.25 0 0 1 0.27734 0.05273 11.25 11.25 0 0 1 0.27539 0.06055 11.25 11.25 0 0 1 0.27539 0.06641 11.25 11.25 0 0 1 0.27148 0.07422 11.25 11.25 0 0 1 0.26953 0.08008 11.25 11.25 0 0 1 0.26953 0.08594 11.25 11.25 0 0 1 0.26562 0.09375 11.25 11.25 0 0 1 0.26367 0.10156 11.25 11.25 0 0 1 0.26172 0.10547 11.25 11.25 0 0 1 0.25781 0.11328 11.25 11.25 0 0 1 0.25586 0.12109 11.25 11.25 0 0 1 0.25195 0.125 11.25 11.25 0 0 1 0.24805 0.13281 11.25 11.25 0 0 1 0.24609 0.13867 11.25 11.25 0 0 1 0.24219 0.14453 11.25 11.25 0 0 1 0.23828 0.15039 11.25 11.25 0 0 1 0.23438 0.1582 11.25 11.25 0 0 1 0.23047 0.16211 11.25 11.25 0 0 1 0.22656 0.16797 11.25 11.25 0 0 1 0.22266 0.17383 11.25 11.25 0 0 1 0.2168 0.17969 11.25 11.25 0 0 1 0.21289 0.18359 11.25 11.25 0 0 1 0.20898 0.19141 11.25 11.25 0 0 1 0.20312 0.19531 11.25 11.25 0 0 1 0.19922 0.19922 11.25 11.25 0 0 1 0.19336 0.20508 11.25 11.25 0 0 1 0.1875 0.21094 11.25 11.25 0 0 1 0.18359 0.21484 11.25 11.25 0 0 1 0.17773 0.21875 11.25 11.25 0 0 1 0.17188 0.22266 11.25 11.25 0 0 1 0.16602 0.22852 11.25 11.25 0 0 1 0.16016 0.23242 11.25 11.25 0 0 1 0.1543 0.23633 11.25 11.25 0 0 1 0.14844 0.23828 11.25 11.25 0 0 1 0.14258 0.24414 11.25 11.25 0 0 1 0.13672 0.24609 11.25 11.25 0 0 1 0.13086 0.25 11.25 11.25 0 0 1 0.12305 0.25391 11.25 11.25 0 0 1 0.11914 0.25586 11.25 11.25 0 0 1 0.11133 0.25977 11.25 11.25 0 0 1 0.10352 0.26172 11.25 11.25 0 0 1 0.09766 0.26367 11.25 11.25 0 0 1 0.0918 0.26758 11.25 11.25 0 0 1 0.08398 0.26953 11.25 11.25 0 0 1 0.07813 0.27148 11.25 11.25 0 0 1 0.07227 0.27148 11.25 11.25 0 0 1 0.0625 0.27539 11.25 11.25 0 0 1 0.05859 0.27539 11.25 11.25 0 0 1 0.05078 0.27734 11.25 11.25 0 0 1 0.04297 0.2793 11.25 11.25 0 0 1 0.03516 0.2793 11.25 11.25 0 0 1 0.0293 0.28125 11.25 11.25 0 0 1 0.02344 0.28125 11.25 11.25 0 0 1 0.01562 0.28125 11.25 11.25 0 0 1 0.0078 0.28125 11.25 11.25 0 0 1 2e-3 0.18555 11.25 11.25 0 0 1-0.0039 0.28125 11.25 11.25 0 0 1-0.01172 0.2832 11.25 11.25 0 0 1-0.01758 0.28125 11.25 11.25 0 0 1-0.02344 0.28125 11.25 11.25 0 0 1-0.0332 0.2793 11.25 11.25 0 0 1-0.03906 0.2793 11.25 11.25 0 0 1-0.04492 0.2793 11.25 11.25 0 0 1-0.05273 0.27539 11.25 11.25 0 0 1-0.05859 0.27734 11.25 11.25 0 0 1-0.06836 0.27344 11.25 11.25 0 0 1-0.07227 0.27148 11.25 11.25 0 0 1-0.08008 0.27148 11.25 11.25 0 0 1-0.08789 0.26758 11.25 11.25 0 0 1-0.09375 0.26562 11.25 11.25 0 0 1-0.09961 0.26367 11.25 11.25 0 0 1-0.10742 0.26172 11.25 11.25 0 0 1-0.11328 0.25781 11.25 11.25 0 0 1-0.11914 0.25586 11.25 11.25 0 0 1-0.12695 0.25195 11.25 11.25 0 0 1-0.13281 0.24805 11.25 11.25 0 0 1-0.13867 0.24609 11.25 11.25 0 0 1-0.14453 0.24219 11.25 11.25 0 0 1-0.15039 0.23828 11.25 11.25 0 0 1-0.15625 0.23437 11.25 11.25 0 0 1-0.16211 0.23047 11.25 11.25 0 0 1-0.16797 0.22656 11.25 11.25 0 0 1-0.17383 0.22266 11.25 11.25 0 0 1-0.17969 0.2168 11.25 11.25 0 0 1-0.18555 0.21289 11.25 11.25 0 0 1-0.18945 0.20898 11.25 11.25 0 0 1-0.19531 0.20312 11.25 11.25 0 0 1-0.20117 0.19922 11.25 11.25 0 0 1-0.20508 0.19336 11.25 11.25 0 0 1-0.20898 0.1875 11.25 11.25 0 0 1-0.21484 0.18359 11.25 11.25 0 0 1-0.2207 0.17773 11.25 11.25 0 0 1-0.22266 0.17188 11.25 11.25 0 0 1-0.22852 0.16602 11.25 11.25 0 0 1-0.23047 0.16016 11.25 11.25 0 0 1-0.23633 0.1543 11.25 11.25 0 0 1-0.24023 0.15039 11.25 11.25 0 0 1-0.24219 0.14258 11.25 11.25 0 0 1-0.24805 0.13672 11.25 11.25 0 0 1-0.25 0.12891 11.25 11.25 0 0 1-0.25195 0.125 11.25 11.25 0 0 1-0.25781 0.11719 11.25 11.25 0 0 1-0.25781 0.11133 11.25 11.25 0 0 1-0.26367 0.10352 11.25 11.25 0 0 1-0.26367 0.09961 11.25 11.25 0 0 1-0.26758 0.08984 11.25 11.25 0 0 1-0.26758 0.08594 11.25 11.25 0 0 1-0.27148 0.07617 11.25 11.25 0 0 1-0.27344 0.07227 11.25 11.25 0 0 1-0.27344 0.06445 11.25 11.25 0 0 1-0.27734 0.05664 11.25 11.25 0 0 1-0.27734 0.05078 11.25 11.25 0 0 1-0.2793 0.04297 11.25 11.25 0 0 1-0.11914 0.01563v5.6348a16.743 16.743 0 0 0 15.133-16.664 16.743 16.743 0 0 0-15.133-16.666z" fill="none" stroke="#fff" stroke-linecap="round" stroke-linejoin="round"/>
</svg>
