<?xml version="1.0" encoding="UTF-8" standalone="no"?>
<svg
   xmlns:dc="http://purl.org/dc/elements/1.1/"
   xmlns:cc="http://creativecommons.org/ns#"
   xmlns:rdf="http://www.w3.org/1999/02/22-rdf-syntax-ns#"
   xmlns:svg="http://www.w3.org/2000/svg"
   xmlns="http://www.w3.org/2000/svg"
   xmlns:sodipodi="http://sodipodi.sourceforge.net/DTD/sodipodi-0.dtd"
   xmlns:inkscape="http://www.inkscape.org/namespaces/inkscape"
   viewBox="0 0 48 48"
   version="1.1"
   id="svg8"
   sodipodi:docname="ausweisapp.svg"
   inkscape:version="1.0.1 (3bc2e813f5, 2020-09-07)">
  <metadata
     id="metadata12">
    <rdf:RDF>
      <cc:Work
         rdf:about="">
        <dc:format>image/svg+xml</dc:format>
        <dc:type
           rdf:resource="http://purl.org/dc/dcmitype/StillImage" />
        <dc:title />
      </cc:Work>
    </rdf:RDF>
  </metadata>
  <sodipodi:namedview
     pagecolor="#000000"
     bordercolor="#666666"
     borderopacity="1"
     objecttolerance="10"
     gridtolerance="10"
     guidetolerance="10"
     inkscape:pageopacity="0"
     inkscape:pageshadow="2"
     inkscape:window-width="1920"
     inkscape:window-height="1127"
     id="namedview10"
     showgrid="false"
     inkscape:zoom="12.254904"
     inkscape:cx="8.5292538"
     inkscape:cy="25.224194"
     inkscape:window-x="0"
     inkscape:window-y="0"
     inkscape:window-maximized="1"
     inkscape:current-layer="svg8"
     inkscape:document-rotation="0" />
  <defs
     id="defs4">
    <style
       id="style2">.a{fill:none;stroke:#fff;stroke-linecap:round;stroke-linejoin:round;}</style>
  </defs>
  <circle
     style="opacity:1;fill:none;stroke:#ffffff;stroke-width:1.333;stroke-linecap:round;stroke-linejoin:round;stroke-miterlimit:4;stroke-dasharray:none;stroke-opacity:1"
     id="path889"
     cx="24"
     cy="24"
     r="21.74876" />
  <path
     id="path928"
     style="opacity:1;fill:none;stroke:#ffffff;stroke-width:1.33333;stroke-linecap:round;stroke-linejoin:round;stroke-miterlimit:4;stroke-dasharray:none;stroke-opacity:1"
     d="M 22.614257,7.3154293 A 16.743181,16.743181 0 0 0 7.2568358,24.000977 16.743181,16.743181 0 0 0 22.614257,40.684571 v -5.66211 a 11.249729,11.249729 0 0 1 -0.160156,-0.02148 11.249729,11.249729 0 0 1 -0.277344,-0.04687 11.249729,11.249729 0 0 1 -0.277343,-0.05273 11.249729,11.249729 0 0 1 -0.275391,-0.05859 11.249729,11.249729 0 0 1 -0.273438,-0.06641 11.249729,11.249729 0 0 1 -0.273437,-0.07422 11.249729,11.249729 0 0 1 -0.269531,-0.08008 11.249729,11.249729 0 0 1 -0.269532,-0.08789 11.249729,11.249729 0 0 1 -0.265624,-0.0918 11.249729,11.249729 0 0 1 -0.263672,-0.101562 11.249729,11.249729 0 0 1 -0.259766,-0.107422 11.249729,11.249729 0 0 1 -0.259766,-0.113282 11.249729,11.249729 0 0 1 -0.253906,-0.11914 11.249729,11.249729 0 0 1 -0.251953,-0.125 11.249729,11.249729 0 0 1 -0.25,-0.132813 11.249729,11.249729 0 0 1 -0.246094,-0.138671 11.249729,11.249729 0 0 1 -0.242187,-0.144532 11.249729,11.249729 0 0 1 -0.238282,-0.152344 11.249729,11.249729 0 0 1 -0.234374,-0.15625 11.249729,11.249729 0 0 1 -0.230469,-0.162117 11.249729,11.249729 0 0 1 -0.226563,-0.167969 11.249729,11.249729 0 0 1 -0.220703,-0.173828 11.249729,11.249729 0 0 1 -0.21875,-0.179687 11.249729,11.249729 0 0 1 -0.212891,-0.185547 11.249729,11.249729 0 0 1 -0.207031,-0.189453 11.249729,11.249729 0 0 1 -0.205078,-0.195313 11.249729,11.249729 0 0 1 -0.197265,-0.201172 11.249729,11.249729 0 0 1 -0.19336,-0.205078 11.249729,11.249729 0 0 1 -0.189453,-0.208984 11.249729,11.249729 0 0 1 -0.181641,-0.214844 11.249729,11.249729 0 0 1 -0.177734,-0.21875 11.249729,11.249729 0 0 1 -0.171875,-0.224609 11.249729,11.249729 0 0 1 -0.167969,-0.226563 11.249729,11.249729 0 0 1 -0.160156,-0.232422 11.249729,11.249729 0 0 1 -0.154297,-0.236328 11.249729,11.249729 0 0 1 -0.148437,-0.240234 11.249729,11.249729 0 0 1 -0.142578,-0.242188 11.249729,11.249729 0 0 1 -0.136719,-0.246093 11.249729,11.249729 0 0 1 -0.13086,-0.251953 11.249729,11.249729 0 0 1 -0.123047,-0.251954 11.249729,11.249729 0 0 1 -0.117187,-0.255859 11.249729,11.249729 0 0 1 -0.111328,-0.259766 11.249729,11.249729 0 0 1 -0.105469,-0.261718 11.249729,11.249729 0 0 1 -0.09766,-0.265625 11.249729,11.249729 0 0 1 -0.0918,-0.265625 11.249729,11.249729 0 0 1 -0.08398,-0.269532 11.249729,11.249729 0 0 1 -0.07813,-0.271484 11.249729,11.249729 0 0 1 -0.07031,-0.273437 11.249729,11.249729 0 0 1 -0.06445,-0.273438 11.249729,11.249729 0 0 1 -0.05664,-0.277344 11.249729,11.249729 0 0 1 -0.05078,-0.277344 11.249729,11.249729 0 0 1 -0.04297,-0.277343 11.249729,11.249729 0 0 1 -0.03711,-0.28125 11.249729,11.249729 0 0 1 -0.0293,-0.279297 11.249729,11.249729 0 0 1 -0.02148,-0.28125 11.249729,11.249729 0 0 1 -0.01563,-0.28125 11.249729,11.249729 0 0 1 -0.0078,-0.283203 11.249729,11.249729 0 0 1 -0.002,-0.183594 11.249729,11.249729 0 0 1 0.0039,-0.283203 11.249729,11.249729 0 0 1 0.0098,-0.28125 11.249729,11.249729 0 0 1 0.01758,-0.28125 11.249729,11.249729 0 0 1 0.02539,-0.28125 11.249729,11.249729 0 0 1 0.03125,-0.279297 11.249729,11.249729 0 0 1 0.03906,-0.279297 11.249729,11.249729 0 0 1 0.04492,-0.279297 11.249729,11.249729 0 0 1 0.05274,-0.277343 11.249729,11.249729 0 0 1 0.06055,-0.275391 11.249729,11.249729 0 0 1 0.06641,-0.273438 11.249729,11.249729 0 0 1 0.07226,-0.273437 11.249729,11.249729 0 0 1 0.08008,-0.269531 11.249729,11.249729 0 0 1 0.08789,-0.267579 11.249729,11.249729 0 0 1 0.09375,-0.267578 11.249729,11.249729 0 0 1 0.09961,-0.263672 11.249729,11.249729 0 0 1 0.107422,-0.259765 11.249729,11.249729 0 0 1 0.113282,-0.257813 11.249729,11.249729 0 0 1 0.11914,-0.255859 11.249729,11.249729 0 0 1 0.126953,-0.251953 11.249729,11.249729 0 0 1 0.132813,-0.25 11.249729,11.249729 0 0 1 0.138672,-0.244141 11.249729,11.249729 0 0 1 0.144531,-0.242187 11.249729,11.249729 0 0 1 0.150391,-0.238282 11.249729,11.249729 0 0 1 0.15625,-0.234374 11.249729,11.249729 0 0 1 0.164062,-0.232422 11.249729,11.249729 0 0 1 0.167969,-0.22461 11.249729,11.249729 0 0 1 0.173828,-0.222656 11.249729,11.249729 0 0 1 0.179687,-0.216797 11.249729,11.249729 0 0 1 0.183594,-0.214844 11.249729,11.249729 0 0 1 0.191406,-0.207031 11.249729,11.249729 0 0 1 0.195313,-0.203125 11.249729,11.249729 0 0 1 0.199219,-0.199219 11.249729,11.249729 0 0 1 0.205078,-0.193359 11.249729,11.249729 0 0 1 0.210937,-0.189453 11.249729,11.249729 0 0 1 0.214844,-0.181641 11.249729,11.249729 0 0 1 0.21875,-0.177734 11.249729,11.249729 0 0 1 0.222656,-0.171875 11.249729,11.249729 0 0 1 0.228516,-0.166016 11.249729,11.249729 0 0 1 0.232422,-0.162109 11.249729,11.249729 0 0 1 0.234375,-0.154297 11.249729,11.249729 0 0 1 0.240234,-0.148438 11.249729,11.249729 0 0 1 0.244141,-0.142578 11.249729,11.249729 0 0 1 0.246093,-0.136718 11.249729,11.249729 0 0 1 0.25,-0.13086 11.249729,11.249729 0 0 1 0.253907,-0.123047 11.249729,11.249729 0 0 1 0.255859,-0.117187 11.249729,11.249729 0 0 1 0.259766,-0.111328 11.249729,11.249729 0 0 1 0.261718,-0.105469 11.249729,11.249729 0 0 1 0.263672,-0.09766 11.249729,11.249729 0 0 1 0.267578,-0.0918 11.249729,11.249729 0 0 1 0.269532,-0.08398 11.249729,11.249729 0 0 1 0.269531,-0.07813 11.249729,11.249729 0 0 1 0.273437,-0.07031 11.249729,11.249729 0 0 1 0.275391,-0.06445 11.249729,11.249729 0 0 1 0.275391,-0.05664 11.249729,11.249729 0 0 1 0.277344,-0.05078 11.249729,11.249729 0 0 1 0.279296,-0.04297 11.249729,11.249729 0 0 1 0.0625,-0.0078 z m 2.996094,0.019531 v 5.3886727 a 11.249729,11.249729 0 0 1 0.216797,0.03125 11.249729,11.249729 0 0 1 0.277344,0.04492 11.249729,11.249729 0 0 1 0.277343,0.05273 11.249729,11.249729 0 0 1 0.275391,0.06055 11.249729,11.249729 0 0 1 0.275391,0.06641 11.249729,11.249729 0 0 1 0.271484,0.07422 11.249729,11.249729 0 0 1 0.269531,0.08008 11.249729,11.249729 0 0 1 0.269532,0.08594 11.249729,11.249729 0 0 1 0.265625,0.09375 11.249729,11.249729 0 0 1 0.263672,0.101562 11.249729,11.249729 0 0 1 0.261718,0.105469 11.249729,11.249729 0 0 1 0.257813,0.113281 11.249729,11.249729 0 0 1 0.255859,0.121094 11.249729,11.249729 0 0 1 0.251953,0.125 11.249729,11.249729 0 0 1 0.248047,0.132813 11.249729,11.249729 0 0 1 0.246094,0.138671 11.249729,11.249729 0 0 1 0.242187,0.144532 11.249729,11.249729 0 0 1 0.238282,0.15039 11.249729,11.249729 0 0 1 0.234375,0.158204 11.249729,11.249729 0 0 1 0.230468,0.162109 11.249729,11.249729 0 0 1 0.226563,0.167969 11.249729,11.249729 0 0 1 0.222656,0.173828 11.249729,11.249729 0 0 1 0.216797,0.179687 11.249729,11.249729 0 0 1 0.212891,0.183594 11.249729,11.249729 0 0 1 0.208984,0.191406 11.249729,11.249729 0 0 1 0.203125,0.195313 11.249729,11.249729 0 0 1 0.199219,0.199218 11.249729,11.249729 0 0 1 0.193359,0.205079 11.249729,11.249729 0 0 1 0.1875,0.210937 11.249729,11.249729 0 0 1 0.183594,0.214844 11.249729,11.249729 0 0 1 0.177734,0.21875 11.249729,11.249729 0 0 1 0.171875,0.222656 11.249729,11.249729 0 0 1 0.166016,0.228516 11.249729,11.249729 0 0 1 0.160156,0.232422 11.249729,11.249729 0 0 1 0.154297,0.236328 11.249729,11.249729 0 0 1 0.148438,0.238281 11.249729,11.249729 0 0 1 0.142578,0.244141 11.249729,11.249729 0 0 1 0.136718,0.246093 11.249729,11.249729 0 0 1 0.13086,0.25 11.249729,11.249729 0 0 1 0.123047,0.253907 11.249729,11.249729 0 0 1 0.11914,0.255859 11.249729,11.249729 0 0 1 0.111328,0.259766 11.249729,11.249729 0 0 1 0.103516,0.261718 11.249729,11.249729 0 0 1 0.09766,0.263672 11.249729,11.249729 0 0 1 0.0918,0.267578 11.249729,11.249729 0 0 1 0.08398,0.269532 11.249729,11.249729 0 0 1 0.07813,0.271484 11.249729,11.249729 0 0 1 0.07227,0.271484 11.249729,11.249729 0 0 1 0.0625,0.275391 11.249729,11.249729 0 0 1 0.05859,0.275391 11.249729,11.249729 0 0 1 0.05078,0.277343 11.249729,11.249729 0 0 1 0.04297,0.279297 11.249729,11.249729 0 0 1 0.03516,0.279297 11.249729,11.249729 0 0 1 0.0293,0.28125 11.249729,11.249729 0 0 1 0.02344,0.28125 11.249729,11.249729 0 0 1 0.01562,0.28125 11.249729,11.249729 0 0 1 0.0078,0.28125 11.249729,11.249729 0 0 1 0.002,0.185547 11.249729,11.249729 0 0 1 -0.0039,0.28125 11.249729,11.249729 0 0 1 -0.01172,0.283203 11.249729,11.249729 0 0 1 -0.01758,0.28125 11.249729,11.249729 0 0 1 -0.02344,0.28125 11.249729,11.249729 0 0 1 -0.0332,0.279297 11.249729,11.249729 0 0 1 -0.03906,0.279297 11.249729,11.249729 0 0 1 -0.04492,0.279297 11.249729,11.249729 0 0 1 -0.05273,0.27539 11.249729,11.249729 0 0 1 -0.05859,0.277344 11.249729,11.249729 0 0 1 -0.06836,0.273438 11.249729,11.249729 0 0 1 -0.07227,0.271484 11.249729,11.249729 0 0 1 -0.08008,0.271484 11.249729,11.249729 0 0 1 -0.08789,0.267579 11.249729,11.249729 0 0 1 -0.09375,0.265624 11.249729,11.249729 0 0 1 -0.09961,0.263672 11.249729,11.249729 0 0 1 -0.107422,0.261719 11.249729,11.249729 0 0 1 -0.113281,0.257813 11.249729,11.249729 0 0 1 -0.119141,0.255859 11.249729,11.249729 0 0 1 -0.126953,0.251953 11.249729,11.249729 0 0 1 -0.132813,0.248047 11.249729,11.249729 0 0 1 -0.138671,0.246094 11.249729,11.249729 0 0 1 -0.144532,0.242187 11.249729,11.249729 0 0 1 -0.15039,0.238282 11.249729,11.249729 0 0 1 -0.15625,0.234374 11.249729,11.249729 0 0 1 -0.16211,0.230469 11.249729,11.249729 0 0 1 -0.167968,0.226563 11.249729,11.249729 0 0 1 -0.173829,0.222656 11.249729,11.249729 0 0 1 -0.179687,0.216797 11.249729,11.249729 0 0 1 -0.185547,0.212891 11.249729,11.249729 0 0 1 -0.189453,0.208984 11.249729,11.249729 0 0 1 -0.195313,0.203125 11.249729,11.249729 0 0 1 -0.201171,0.199219 11.249729,11.249729 0 0 1 -0.205079,0.193359 11.249729,11.249729 0 0 1 -0.208984,0.1875 11.249729,11.249729 0 0 1 -0.214844,0.183594 11.249729,11.249729 0 0 1 -0.220703,0.177734 11.249729,11.249729 0 0 1 -0.222656,0.171875 11.249729,11.249729 0 0 1 -0.228516,0.166016 11.249729,11.249729 0 0 1 -0.230468,0.160156 11.249729,11.249729 0 0 1 -0.236329,0.154297 11.249729,11.249729 0 0 1 -0.240234,0.150391 11.249729,11.249729 0 0 1 -0.242187,0.142578 11.249729,11.249729 0 0 1 -0.248047,0.136718 11.249729,11.249729 0 0 1 -0.25,0.128907 11.249729,11.249729 0 0 1 -0.251953,0.125 11.249729,11.249729 0 0 1 -0.257813,0.117187 11.249729,11.249729 0 0 1 -0.257813,0.111328 11.249729,11.249729 0 0 1 -0.263671,0.103516 11.249729,11.249729 0 0 1 -0.263672,0.09961 11.249729,11.249729 0 0 1 -0.267578,0.08984 11.249729,11.249729 0 0 1 -0.267579,0.08594 11.249729,11.249729 0 0 1 -0.271484,0.07617 11.249729,11.249729 0 0 1 -0.273437,0.07227 11.249729,11.249729 0 0 1 -0.273438,0.06445 11.249729,11.249729 0 0 1 -0.277344,0.05664 11.249729,11.249729 0 0 1 -0.277343,0.05078 11.249729,11.249729 0 0 1 -0.279297,0.04297 11.249729,11.249729 0 0 1 -0.119141,0.01563 v 5.634756 A 16.743181,16.743181 0 0 0 40.743164,24.000977 16.743181,16.743181 0 0 0 25.610351,7.3349603 Z" />
</svg>
