<?xml version="1.0" encoding="UTF-8"?>
<svg version="1.1" viewBox="0 0 48 48" xmlns="http://www.w3.org/2000/svg" xmlns:cc="http://creativecommons.org/ns#" xmlns:dc="http://purl.org/dc/elements/1.1/" xmlns:rdf="http://www.w3.org/1999/02/22-rdf-syntax-ns#">
 <metadata>
  <rdf:RDF>
   <cc:Work rdf:about="">
    <dc:format>image/svg+xml</dc:format>
    <dc:type rdf:resource="http://purl.org/dc/dcmitype/StillImage"/>
    <dc:title/>
   </cc:Work>
  </rdf:RDF>
 </metadata>
 <defs>
  <style>.a{fill:none;stroke:#fff;stroke-linecap:round;stroke-linejoin:round;}</style>
 </defs>
 <g fill="none" stroke="#fff" stroke-linejoin="round">
  <path d="m5.5157 34.973c12.268 6.9416 39.798-12.401 35.693-25.566 8.1881 23.915-16.141 41.614-35.693 25.566z"/>
  <path d="m13.139 16.294c1.4494-2.1372 4.3042-4.0799 6.7158-5.0046 0.20654 1.9 0.20281 3.7103-0.4114 5.7483-2.1496-0.019-4.0332-0.06493-6.3044-0.74371z"/>
  <path d="m22.931 15.421c0.02844-2.1352 0.27214-4.9422 1.1313-6.0466 0.75663-1.0119 4.4568-1.8891 6.6853-2.0996-2.2735 3.2447-5.2309 5.5096-7.8165 8.1462z"/>
  <path d="m26.205 15.372c2.8385-2.7627 7.6964-8.0561 8.322-8.0589 1.1077-0.13411 3.2014 1.1922 3.0969 1.8831-0.12435 0.9474-7.6126 4.1172-11.419 6.1758z"/>
  <path d="m25.331 18.281c5.6932-2.7788 11.49-5.3144 12.988-5.5781-0.27158 1.9216-1.3511 4.0573-3.6551 6.5172-3.6938-0.07531-6.7968-0.39165-9.3332-0.93914z"/>
  <path d="m22.968 20.796c-0.48891 1.4456-1.0299 6.1571-0.43568 8.2379 2.6358-0.47858 7.1544-3.7864 9.0088-6.3052-0.68261-0.7485-6.9209-2.1094-8.5731-1.9328z"/>
  <path d="m19.601 22.823c-3.2781 3.3789-6.5107 7.1603-9.0058 9.8929 2.1529 0.33143 5.7895-0.32591 7.3826-1.5027 1.3818-1.2453 1.1991-5.3776 1.6232-8.3902z"/>
  <path d="m5.2047 28.847c-0.18095 0.76895 0.56624 2.6993 2.1645 2.5177 2.3464-1.2856 6.2594-5.9481 9.2277-8.8495-4.6996 2.1332-11.527 5.0627-11.392 6.3318z"/>
  <path d="m10.285 18.71c-1.0708 0.6512-3.6852 3.694-4.4469 5.883 3.6169-1.7345 7.2757-3.4294 11.214-4.859-1.9506-0.56122-5.6387-1.5918-6.7671-1.024z"/>
 </g>
</svg>
