<?xml version="1.0" encoding="UTF-8"?>
<svg version="1.1" viewBox="0 0 48 48" xmlns="http://www.w3.org/2000/svg" xmlns:cc="http://creativecommons.org/ns#" xmlns:dc="http://purl.org/dc/elements/1.1/" xmlns:rdf="http://www.w3.org/1999/02/22-rdf-syntax-ns#">
 <metadata>
  <rdf:RDF>
   <cc:Work rdf:about="">
    <dc:format>image/svg+xml</dc:format>
    <dc:type rdf:resource="http://purl.org/dc/dcmitype/StillImage"/>
    <dc:title/>
   </cc:Work>
  </rdf:RDF>
 </metadata>
 <defs>
  <style>.a{fill:none;stroke:#fff;stroke-linecap:round;stroke-linejoin:round;}</style>
 </defs>
 <g fill="none" stroke="#fff" stroke-linecap="round" stroke-linejoin="round">
  <path d="m27.887 8.2991a8.434 8.4671 0 0 0-1.755 5.1692 8.434 8.4671 0 0 0 8.4352 8.4662 8.434 8.4671 0 0 0 5.0983-1.7238c-0.3137-0.12278-0.66078-0.19151-0.96517-0.32864-1.132-0.50996-2.198-1.1198-3.1975-1.8171-0.99947-0.6973-1.9311-1.4822-2.792-2.3492s-1.6511-1.8156-2.3675-2.8348c-0.71637-1.0192-1.3603-2.1093-1.9261-3.2631-0.20486-0.41775-0.34552-0.88498-0.5301-1.3188z"/>
  <path d="m29.692 6.5584c0.15306 0.35005 0.26441 0.73134 0.43084 1.0707 0.5658 1.1538 1.2076 2.2439 1.924 3.2631 0.71637 1.0192 1.5066 1.9677 2.3675 2.8348 0.86093 0.86705 1.7925 1.6541 2.792 2.3514s2.0676 1.305 3.1996 1.8149c0.34926 0.15734 0.74517 0.239 1.1067 0.37741a8.434 8.4671 0 0 0 1.4868-4.8024 8.434 8.4671 0 0 0-8.4331-8.4683 8.434 8.4671 0 0 0-4.8744 1.5584z"/>
  <g stroke-width="1px">
   <path d="m13.543 43 17.334-21.919"/>
   <path d="m30.932 41.705 8.7336-21.494"/>
   <path d="m15.167 21.253 10.977-7.3137"/>
   <path d="m5 18.707 22.887-10.408"/>
  </g>
 </g>
</svg>
