<?xml version="1.0" encoding="UTF-8" standalone="no"?>
<svg
   xmlns:dc="http://purl.org/dc/elements/1.1/"
   xmlns:cc="http://creativecommons.org/ns#"
   xmlns:rdf="http://www.w3.org/1999/02/22-rdf-syntax-ns#"
   xmlns:svg="http://www.w3.org/2000/svg"
   xmlns="http://www.w3.org/2000/svg"
   xmlns:sodipodi="http://sodipodi.sourceforge.net/DTD/sodipodi-0.dtd"
   xmlns:inkscape="http://www.inkscape.org/namespaces/inkscape"
   viewBox="0 0 48 48"
   version="1.1"
   id="svg8"
   sodipodi:docname="msauth.svg"
   inkscape:version="1.0.1 (3bc2e813f5, 2020-09-07)">
  <metadata
     id="metadata12">
    <rdf:RDF>
      <cc:Work
         rdf:about="">
        <dc:format>image/svg+xml</dc:format>
        <dc:type
           rdf:resource="http://purl.org/dc/dcmitype/StillImage" />
        <dc:title />
      </cc:Work>
    </rdf:RDF>
  </metadata>
  <sodipodi:namedview
     pagecolor="#000000"
     bordercolor="#666666"
     borderopacity="1"
     objecttolerance="10"
     gridtolerance="10"
     guidetolerance="10"
     inkscape:pageopacity="0"
     inkscape:pageshadow="2"
     inkscape:window-width="1920"
     inkscape:window-height="1127"
     id="namedview10"
     showgrid="false"
     inkscape:zoom="7.2386383"
     inkscape:cx="-13.474866"
     inkscape:cy="6.7781542"
     inkscape:window-x="0"
     inkscape:window-y="0"
     inkscape:window-maximized="1"
     inkscape:current-layer="svg8"
     inkscape:document-rotation="0" />
  <defs
     id="defs4">
    <style
       id="style2">.a{fill:none;stroke:#fff;stroke-linecap:round;stroke-linejoin:round;}</style>
  </defs>
  <path
     style="opacity:1;fill:none;stroke:#ffffff;stroke-width:1.33333;stroke-linecap:butt;stroke-linejoin:round;stroke-miterlimit:4;stroke-dasharray:none;stroke-opacity:1"
     d="M 9.8765596,18.494969 C 10.118127,36.027893 17.883001,40.123685 23.949939,42.833407 29.794379,40.424659 38.234656,35.430351 38.122337,18.369597 28.332016,14.533253 18.963353,15.056842 9.8765596,18.494969 Z"
     id="path887"
     sodipodi:nodetypes="cccc" />
  <path
     id="path889-3"
     style="opacity:1;fill:none;stroke:#ffffff;stroke-width:1.33333;stroke-linecap:round;stroke-linejoin:round;stroke-miterlimit:4;stroke-dasharray:none;stroke-opacity:1"
     d="m 27.173056,23.996418 a 3.1238413,3.1238413 0 0 1 -3.123841,3.12384 3.1238413,3.1238413 0 0 1 -3.123842,-3.12384 3.1238413,3.1238413 0 0 1 3.123842,-3.123842 3.1238413,3.1238413 0 0 1 3.123841,3.123842 z m -3.080233,3.409043 a 4.3477182,4.3477182 0 0 0 -4.291121,4.347279 4.3477182,4.3477182 0 0 0 0.03139,0.505421 h 8.633444 a 4.3477182,4.3477182 0 0 0 0.03139,-0.505421 4.3477182,4.3477182 0 0 0 -4.34893,-4.347279 4.3477182,4.3477182 0 0 0 -0.05616,0 z" />
  <path
     id="path920-6"
     style="opacity:1;fill:none;fill-opacity:1;stroke:#ffffff;stroke-width:1.33333;stroke-linecap:round;stroke-linejoin:round;stroke-miterlimit:4;stroke-dasharray:none;stroke-opacity:1"
     d="m 23.89627,5.1669528 c -5.117441,0.083857 -9.21705,3.8418317 -9.216493,8.4484532 1.06e-4,0.432458 0.0371,0.86427 0.110663,1.29163 l 3.178019,-0.723561 c -0.04514,-4.2743684 3.146621,-5.9134161 5.993695,-5.924364 2.847075,-0.010949 6.238933,1.6835452 6.185208,5.887915 l 3.185079,0.743944 c 0.08157,-0.450502 0.122447,-0.819121 0.122226,-1.275564 -2.95e-4,-4.6657636 -4.202618,-8.448077 -9.38662,-8.4484532 -0.05726,-4.715e-4 -0.114519,-4.715e-4 -0.171777,0 z"
     sodipodi:nodetypes="cccczccccc" />
</svg>
