<?xml version="1.0" encoding="UTF-8"?>
<svg version="1.1" viewBox="0 0 48 48" xmlns="http://www.w3.org/2000/svg" xmlns:cc="http://creativecommons.org/ns#" xmlns:dc="http://purl.org/dc/elements/1.1/" xmlns:rdf="http://www.w3.org/1999/02/22-rdf-syntax-ns#">
 <metadata>
  <rdf:RDF>
   <cc:Work rdf:about="">
    <dc:format>image/svg+xml</dc:format>
    <dc:type rdf:resource="http://purl.org/dc/dcmitype/StillImage"/>
    <dc:title/>
   </cc:Work>
  </rdf:RDF>
 </metadata>
 <defs>
  <style>.a{fill:none;stroke:#fff;stroke-linecap:round;stroke-linejoin:round;}</style>
 </defs>
 <g fill="none" stroke="#fff" stroke-linejoin="round">
  <path d="m9.8766 18.495c0.24157 17.533 8.0064 21.629 14.073 24.338 5.8444-2.4087 14.285-7.4031 14.172-24.464-9.7903-3.8363-19.159-3.3128-28.246 0.12537z"/>
  <path d="m27.173 23.996a3.1238 3.1238 0 0 1-3.1238 3.1238 3.1238 3.1238 0 0 1-3.1238-3.1238 3.1238 3.1238 0 0 1 3.1238-3.1238 3.1238 3.1238 0 0 1 3.1238 3.1238zm-3.0802 3.409a4.3477 4.3477 0 0 0-4.2911 4.3473 4.3477 4.3477 0 0 0 0.03139 0.50542h8.6334a4.3477 4.3477 0 0 0 0.03139-0.50542 4.3477 4.3477 0 0 0-4.3489-4.3473 4.3477 4.3477 0 0 0-0.05616 0z" stroke-linecap="round"/>
  <path d="m23.896 5.167c-5.1174 0.083857-9.217 3.8418-9.2165 8.4485 1.06e-4 0.43246 0.0371 0.86427 0.11066 1.2916l3.178-0.72356c-0.04514-4.2744 3.1466-5.9134 5.9937-5.9244 2.8471-0.010949 6.2389 1.6835 6.1852 5.8879l3.1851 0.74394c0.08157-0.4505 0.12245-0.81912 0.12223-1.2756-2.95e-4 -4.6658-4.2026-8.4481-9.3866-8.4485-0.05726-4.715e-4 -0.11452-4.715e-4 -0.17178 0z" stroke-linecap="round"/>
 </g>
</svg>
