<?xml version="1.0" encoding="UTF-8"?>
<svg version="1.1" viewBox="0 0 48 48" xmlns="http://www.w3.org/2000/svg" xmlns:cc="http://creativecommons.org/ns#" xmlns:dc="http://purl.org/dc/elements/1.1/" xmlns:rdf="http://www.w3.org/1999/02/22-rdf-syntax-ns#">
 <metadata>
  <rdf:RDF>
   <cc:Work rdf:about="">
    <dc:format>image/svg+xml</dc:format>
    <dc:type rdf:resource="http://purl.org/dc/dcmitype/StillImage"/>
    <dc:title/>
   </cc:Work>
  </rdf:RDF>
 </metadata>
 <defs>
  <style>.a{fill:none;stroke:#fff;stroke-linecap:round;stroke-linejoin:round;}</style>
 </defs>
 <g fill="none">
  <g stroke="#fff" stroke-linecap="round" stroke-linejoin="round">
   <rect x="13.187" y="7.9648" width="21.626" height="13.583" rx="1.1638"/>
   <rect x="14.935" y="9.7986" width="18.131" height="9.915" rx=".37386"/>
   <rect x="5" y="32.658" width="7.3793" height="7.3769" rx="1.1638"/>
   <rect x="15.108" y="32.584" width="7.3793" height="7.3769" rx="1.1638"/>
   <rect x="25.512" y="32.584" width="7.3793" height="7.3769" rx="1.1638"/>
   <rect x="35.621" y="32.658" width="7.3793" height="7.3769" rx="1.1638"/>
   <path d="m24 21.547v3.1213a2.1997 2.1997 135 0 1-2.1997 2.1997h-10.814a2.2969 2.2969 135 0 0-2.2969 2.2969v3.493" stroke-width="1px"/>
   <path d="m24 21.547v3.1213a2.1997 2.1997 45 0 0 2.1997 2.1997h10.814a2.2969 2.2969 45 0 1 2.2969 2.2969v3.493" stroke-width="1px"/>
  </g>
  <path d="m18.798 32.584v-3.6247a2.0906 2.0906 135 0 1 2.0906-2.0906h1.0616" stroke="#fefefe" stroke-width="1px"/>
  <path d="m29.202 32.584v-3.6247a2.0906 2.0906 45 0 0-2.0906-2.0906h-1.0616" stroke="#fefefe" stroke-width="1px"/>
 </g>
</svg>
