<?xml version="1.0" encoding="UTF-8"?>
<svg version="1.1" viewBox="0 0 48 48" xmlns="http://www.w3.org/2000/svg" xmlns:cc="http://creativecommons.org/ns#" xmlns:dc="http://purl.org/dc/elements/1.1/" xmlns:rdf="http://www.w3.org/1999/02/22-rdf-syntax-ns#">
 <metadata>
  <rdf:RDF>
   <cc:Work rdf:about="">
    <dc:format>image/svg+xml</dc:format>
    <dc:type rdf:resource="http://purl.org/dc/dcmitype/StillImage"/>
    <dc:title/>
   </cc:Work>
  </rdf:RDF>
 </metadata>
 <defs>
  <style>.a{fill:none;stroke:#fff;stroke-linecap:round;stroke-linejoin:round;}</style>
 </defs>
 <g fill="none" stroke="#fff">
  <path d="m27.529 7.4653 8.6168 1e-7c1.4899 0 2.6893 1.1994 2.6893 2.6893v29.989c0 1.4899-1.1994 2.6893-2.6893 2.6893h-24.292c-1.4899 0-2.6893-1.1994-2.6893-2.6893v-29.989c0-1.4899 1.1994-2.6893 2.6893-2.6893v0h0.85399" stroke-linecap="round"/>
  <path d="m15.93 6.724 0.0419 23.505 4.9151-4.9151 4.9751 4.9751 0.03972-23.352c0-1.0208-0.50494-1.7697-1.9713-1.7697l-8.4031 0.00494c-1.1804 0-1.3586 0.81529-1.3586 1.5492z" stroke-linejoin="round"/>
  <g stroke-linecap="round" stroke-linejoin="round">
   <path d="m27.65 12.386h6.3031"/>
   <path d="m27.65 15.943h6.3031"/>
   <path d="m27.65 19.5h6.3031"/>
   <path d="m27.65 23.057h6.3031"/>
   <path d="m17.446 38.669h11.275"/>
   <path d="m17.433 35.605h16.736"/>
   <path d="m17.39 32.54h16.736"/>
  </g>
 </g>
</svg>
